<svg width="21" height="17" viewBox="0 0 21 17" fill="none" xmlns="http://www.w3.org/2000/svg">
<g clip-path="url(#clip0_132_427)">
<path d="M19.9404 3.9627C19.8273 3.53704 19.6043 3.14857 19.2939 2.83618C18.9834 2.52379 18.5963 2.29844 18.1714 2.1827C16.6124 1.7627 10.3584 1.7627 10.3584 1.7627C10.3584 1.7627 4.1044 1.7627 2.5444 2.1827C2.11959 2.2985 1.73267 2.52389 1.42238 2.83628C1.11209 3.14868 0.889327 3.53712 0.776398 3.9627C0.358398 5.5327 0.358398 8.8077 0.358398 8.8077C0.358398 8.8077 0.358398 12.0827 0.776398 13.6527C1.0064 14.5187 1.6844 15.2007 2.5454 15.4327C4.1044 15.8527 10.3584 15.8527 10.3584 15.8527C10.3584 15.8527 16.6124 15.8527 18.1724 15.4327C18.5971 15.3167 18.9839 15.0913 19.2942 14.7789C19.6045 14.4665 19.8273 14.0782 19.9404 13.6527C20.3584 12.0827 20.3584 8.8077 20.3584 8.8077C20.3584 8.8077 20.3584 5.5327 19.9404 3.9627ZM8.3134 11.7827V5.8327L13.5404 8.8077L8.3134 11.7817V11.7827Z" fill="white"/>
</g>
<defs>
<clipPath id="clip0_132_427">
<rect width="20" height="16" fill="white" transform="translate(0.358398 0.807617)"/>
</clipPath>
</defs>
</svg>
