<svg width="21" height="21" viewBox="0 0 21 21" fill="none" xmlns="http://www.w3.org/2000/svg">
<g clip-path="url(#clip0_132_385)">
<path d="M20.3584 10.8672C20.3584 15.8582 16.6964 19.9962 11.9164 20.7472V13.7772H14.2414L14.6834 10.8942H11.9164V9.02419C11.9164 8.23419 12.3034 7.46619 13.5414 7.46619H14.7994V5.01119C14.7994 5.01119 13.6574 4.81619 12.5664 4.81619C10.2884 4.81619 8.8004 6.19619 8.8004 8.69619V10.8932H6.2674V13.7772H8.8004V20.7462C4.0204 19.9942 0.358398 15.8572 0.358398 10.8672C0.358398 5.34519 4.8364 0.867188 10.3584 0.867188C15.8814 0.867188 20.3584 5.34419 20.3584 10.8672Z" fill="white"/>
</g>
<defs>
<clipPath id="clip0_132_385">
<rect width="20" height="20" fill="white" transform="translate(0.358398 0.807617)"/>
</clipPath>
</defs>
</svg>
