<svg width="21" height="19" viewBox="0 0 21 19" fill="none" xmlns="http://www.w3.org/2000/svg">
<g clip-path="url(#clip0_132_418)">
<path d="M18.3114 5.72763C18.3224 5.90363 18.3224 6.08063 18.3224 6.25763C18.3224 11.6806 14.1944 17.9326 6.6474 17.9326V17.9296C4.41791 17.9326 2.23467 17.2939 0.358398 16.0896C1.43256 16.219 2.52169 16.1355 3.56355 15.8438C4.60542 15.5521 5.57959 15.058 6.4304 14.3896C5.57414 14.3734 4.74437 14.09 4.05712 13.579C3.36987 13.068 2.8595 12.3549 2.5974 11.5396C3.21232 11.6579 3.84616 11.634 4.4504 11.4696C3.52161 11.2822 2.68631 10.7791 2.08625 10.0458C1.4862 9.31248 1.15837 8.39414 1.1584 7.44663V7.39563C1.72921 7.7137 2.36822 7.88966 3.0214 7.90863C2.1526 7.32866 1.53751 6.43936 1.30137 5.4218C1.06524 4.40425 1.22581 3.33495 1.7504 2.43163C2.78075 3.6988 4.066 4.73519 5.52276 5.47356C6.97953 6.21194 8.57525 6.63579 10.2064 6.71763C10.0021 5.83802 10.0935 4.91562 10.4663 4.09315C10.8391 3.27068 11.4725 2.594 12.2686 2.16782C13.0647 1.74164 13.9791 1.58972 14.8703 1.73557C15.7614 1.88141 16.5797 2.31689 17.1984 2.97463C18.1184 2.79463 18.9984 2.45663 19.8054 1.97963C19.4985 2.92992 18.8571 3.73652 18.0004 4.24963C18.8141 4.1527 19.6089 3.93497 20.3584 3.60363C19.8077 4.42763 19.1145 5.14688 18.3114 5.72763Z" fill="white"/>
</g>
<defs>
<clipPath id="clip0_132_418">
<rect width="20" height="18" fill="white" transform="translate(0.358398 0.807617)"/>
</clipPath>
</defs>
</svg>
