<svg width="21" height="21" viewBox="0 0 21 21" fill="none" xmlns="http://www.w3.org/2000/svg">
<g clip-path="url(#clip0_132_404)">
<mask id="mask0_132_404" style="mask-type:luminance" maskUnits="userSpaceOnUse" x="0" y="0" width="21" height="21">
<path d="M0.358398 0.807617H20.3584V20.8076H0.358398V0.807617Z" fill="white"/>
</mask>
<g mask="url(#mask0_132_404)">
<path d="M10.3584 2.60962C13.0284 2.60962 13.3454 2.61962 14.3984 2.66762C15.4884 2.71762 16.6114 2.96562 17.4064 3.76062C18.2074 4.56162 18.4484 5.67362 18.4984 6.76662C18.5464 7.82062 18.5564 8.13762 18.5564 10.8076C18.5564 13.4776 18.5464 13.7946 18.4984 14.8476C18.4484 15.9326 18.1954 17.0656 17.4054 17.8556C16.6044 18.6566 15.4934 18.8976 14.3994 18.9476C13.3454 18.9956 13.0284 19.0056 10.3584 19.0056C7.6884 19.0056 7.3714 18.9956 6.3184 18.9476C5.2414 18.8976 4.0934 18.6376 3.3114 17.8546C2.5134 17.0576 2.2684 15.9346 2.2184 14.8486C2.1704 13.7946 2.1604 13.4776 2.1604 10.8076C2.1604 8.13762 2.1704 7.82062 2.2184 6.76762C2.2684 5.68762 2.5244 4.54762 3.3114 3.76062C4.1114 2.96062 5.2264 2.71762 6.3174 2.66762C7.3714 2.61962 7.6884 2.60962 10.3584 2.60962ZM10.3584 0.807617C7.6424 0.807617 7.3014 0.819617 6.2354 0.867617C4.6884 0.937617 3.1544 1.36762 2.0364 2.48562C0.915398 3.60762 0.489398 5.13962 0.418398 6.68462C0.370398 7.75062 0.358398 8.09162 0.358398 10.8076C0.358398 13.5236 0.370398 13.8646 0.418398 14.9306C0.488398 16.4756 0.920398 18.0146 2.0364 19.1296C3.1574 20.2496 4.6914 20.6766 6.2354 20.7476C7.3014 20.7956 7.6424 20.8076 10.3584 20.8076C13.0744 20.8076 13.4154 20.7956 14.4814 20.7476C16.0264 20.6776 17.5634 20.2456 18.6804 19.1296C19.8024 18.0066 20.2274 16.4756 20.2984 14.9306C20.3464 13.8646 20.3584 13.5236 20.3584 10.8076C20.3584 8.09162 20.3464 7.75062 20.2984 6.68462C20.2284 5.13862 19.7964 3.60262 18.6804 2.48562C17.5604 1.36762 16.0224 0.937617 14.4814 0.867617C13.4154 0.819617 13.0744 0.807617 10.3584 0.807617Z" fill="white"/>
<path d="M10.3584 5.67253C8.99651 5.67253 7.6904 6.21354 6.7274 7.17654C5.7644 8.13954 5.2234 9.44564 5.2234 10.8075C5.2234 12.1694 5.7644 13.4755 6.7274 14.4385C7.6904 15.4015 8.99651 15.9425 10.3584 15.9425C11.7203 15.9425 13.0264 15.4015 13.9894 14.4385C14.9524 13.4755 15.4934 12.1694 15.4934 10.8075C15.4934 9.44564 14.9524 8.13954 13.9894 7.17654C13.0264 6.21354 11.7203 5.67253 10.3584 5.67253ZM10.3584 14.1415C9.92064 14.1415 9.48716 14.0553 9.08272 13.8878C8.67828 13.7203 8.3108 13.4747 8.00126 13.1652C7.69171 12.8556 7.44617 12.4881 7.27864 12.0837C7.11112 11.6793 7.0249 11.2458 7.0249 10.808C7.0249 10.3703 7.11112 9.9368 7.27864 9.53236C7.44617 9.12792 7.69171 8.76044 8.00126 8.45089C8.3108 8.14135 8.67828 7.8958 9.08272 7.72828C9.48716 7.56076 9.92064 7.47453 10.3584 7.47453C11.2425 7.47453 12.0904 7.82574 12.7155 8.45089C13.3407 9.07604 13.6919 9.92393 13.6919 10.808C13.6919 11.6921 13.3407 12.54 12.7155 13.1652C12.0904 13.7903 11.2425 14.1415 10.3584 14.1415ZM15.6974 6.66953C16.0157 6.66953 16.3209 6.5431 16.5459 6.31806C16.771 6.09302 16.8974 5.78779 16.8974 5.46953C16.8974 5.15127 16.771 4.84605 16.5459 4.621C16.3209 4.39596 16.0157 4.26953 15.6974 4.26953C15.3791 4.26953 15.0739 4.39596 14.8489 4.621C14.6238 4.84605 14.4974 5.15127 14.4974 5.46953C14.4974 5.78779 14.6238 6.09302 14.8489 6.31806C15.0739 6.5431 15.3791 6.66953 15.6974 6.66953Z" fill="white"/>
</g>
</g>
<defs>
<clipPath id="clip0_132_404">
<rect width="20" height="20" fill="white" transform="translate(0.358398 0.807617)"/>
</clipPath>
</defs>
</svg>
