<svg width="19" height="19" viewBox="0 0 19 19" fill="none" xmlns="http://www.w3.org/2000/svg">
<path d="M2.29639 4.39237C2.29639 3.52792 3.02901 2.82715 3.93275 2.82715H6.61576C6.96793 2.82715 7.28059 3.0427 7.39196 3.36227L8.61745 6.87888C8.7462 7.24836 8.57133 7.65217 8.20715 7.82635L6.3603 8.70963C7.26214 10.6229 8.87357 12.1643 10.8738 13.0269L11.7972 11.2603C11.9793 10.912 12.4015 10.7447 12.7878 10.8679L16.4642 12.0401C16.7983 12.1466 17.0237 12.4456 17.0237 12.7826V15.3489C17.0237 16.2134 16.2911 16.9141 15.3873 16.9141H14.5691C7.79107 16.9141 2.29639 11.6583 2.29639 5.17497V4.39237Z" stroke="#FF8C42" stroke-width="1.80044" stroke-linecap="round" stroke-linejoin="round"/>
</svg>
