<svg width="17" height="21" viewBox="0 0 17 21" fill="none" xmlns="http://www.w3.org/2000/svg">
<g clip-path="url(#clip0_132_587)">
<path d="M13.6684 13.5765C12.8358 14.428 11.0948 16.2085 9.89675 17.4338C9.20249 18.1439 8.07798 18.1442 7.38371 17.4341C6.20657 16.2302 4.49923 14.4841 3.61173 13.5765C0.834664 10.7363 0.834664 6.13144 3.61173 3.29127C6.38879 0.451088 10.8913 0.451088 13.6684 3.29127C16.4454 6.13144 16.4454 10.7363 13.6684 13.5765Z" stroke="#FF8C42" stroke-width="1.79787" stroke-linecap="round" stroke-linejoin="round"/>
<path d="M11.3067 8.43333C11.3067 9.93955 10.1128 11.1606 8.64006 11.1606C7.1673 11.1606 5.97339 9.93955 5.97339 8.43333C5.97339 6.9271 7.1673 5.70605 8.64006 5.70605C10.1128 5.70605 11.3067 6.9271 11.3067 8.43333Z" stroke="#FF8C42" stroke-width="1.79787" stroke-linecap="round" stroke-linejoin="round"/>
</g>
<defs>
<clipPath id="clip0_132_587">
<rect width="16" height="20" fill="white" transform="translate(0.640015 0.251953)"/>
</clipPath>
</defs>
</svg>
